<?xml version="1.0" encoding="UTF-8" standalone="no"?>
<svg
   xmlns:dc="http://purl.org/dc/elements/1.1/"
   xmlns:cc="http://creativecommons.org/ns#"
   xmlns:rdf="http://www.w3.org/1999/02/22-rdf-syntax-ns#"
   xmlns:svg="http://www.w3.org/2000/svg"
   xmlns="http://www.w3.org/2000/svg"
   xmlns:xlink="http://www.w3.org/1999/xlink"
   xmlns:sodipodi="http://sodipodi.sourceforge.net/DTD/sodipodi-0.dtd"
   xmlns:inkscape="http://www.inkscape.org/namespaces/inkscape"
   version="1.0"
   width="800"
   height="800"
   viewBox="0 0 600 600"
   preserveAspectRatio="xMidYMid meet"
   id="svg12"
   sodipodi:docname="icon.svg"
   inkscape:version="0.92.2 (5c3e80d, 2017-08-06)">
  <metadata
     id="metadata18">
    <rdf:RDF>
      <cc:Work
         rdf:about="">
        <dc:format>image/svg+xml</dc:format>
        <dc:type
           rdf:resource="http://purl.org/dc/dcmitype/StillImage" />
        <dc:title />
      </cc:Work>
    </rdf:RDF>
  </metadata>
  <defs
     id="defs16">
    <linearGradient
       inkscape:collect="always"
       id="linearGradient930">
      <stop
         style="stop-color:#bcbcbc;stop-opacity:1;"
         offset="0"
         id="stop926" />
      <stop
         style="stop-color:#ffffff;stop-opacity:1"
         offset="1"
         id="stop928" />
    </linearGradient>
    <linearGradient
       inkscape:collect="always"
       id="linearGradient896">
      <stop
         style="stop-color:#38b2ff;stop-opacity:1"
         offset="0"
         id="stop892" />
      <stop
         style="stop-color:#000f81;stop-opacity:1"
         offset="1"
         id="stop894" />
    </linearGradient>
    <linearGradient
       inkscape:collect="always"
       xlink:href="#linearGradient930"
       id="linearGradient858"
       x1="509.24933"
       y1="192.78038"
       x2="381.46521"
       y2="227.02003"
       gradientUnits="userSpaceOnUse" />
    <linearGradient
       inkscape:collect="always"
       xlink:href="#linearGradient930"
       id="linearGradient866"
       x1="349.6601"
       y1="188.11687"
       x2="197.59624"
       y2="228.86226"
       gradientUnits="userSpaceOnUse" />
    <linearGradient
       inkscape:collect="always"
       xlink:href="#linearGradient896"
       id="linearGradient902"
       gradientUnits="userSpaceOnUse"
       x1="354.62067"
       y1="195.17319"
       x2="286.78793"
       y2="448.32834" />
  </defs>
  <sodipodi:namedview
     pagecolor="#ffffff"
     bordercolor="#666666"
     borderopacity="1"
     objecttolerance="10"
     gridtolerance="10"
     guidetolerance="10"
     inkscape:pageopacity="0"
     inkscape:pageshadow="2"
     inkscape:window-width="1440"
     inkscape:window-height="836"
     id="namedview14"
     showgrid="false"
     units="px"
     inkscape:zoom="4.3065084"
     inkscape:cx="496.36471"
     inkscape:cy="493.13493"
     inkscape:window-x="0"
     inkscape:window-y="27"
     inkscape:window-maximized="1"
     inkscape:current-layer="svg12"
     showguides="true" />
  <path
     style="opacity:1;fill:url(#linearGradient866);fill-opacity:1;stroke:none;stroke-width:0.42519683;stroke-linejoin:round;stroke-miterlimit:4;stroke-dasharray:none;stroke-opacity:1"
     d="m 264.02543,182.04183 21.61215,13.9771 23.08991,39.5915 -74.50345,44.20948 -50.73622,-33.12633 12.19147,-14.77754 22.78204,-30.17081 25.12183,-49.25848"
     id="rect834"
     inkscape:connector-curvature="0"
     sodipodi:nodetypes="cccccccc" />
  <path
     style="opacity:1;fill:url(#linearGradient858);fill-opacity:1;stroke:none;stroke-width:0.42519683;stroke-linejoin:round;stroke-miterlimit:4;stroke-dasharray:none;stroke-opacity:1"
     d="m 438.56203,188.06629 19.64182,16.68632 16.93261,23.58249 -44.57893,48.88903 -59.69452,-35.7634 8.30907,-10.50092 13.08699,-12.72269 28.32362,-52.33714"
     id="rect834-3"
     inkscape:connector-curvature="0"
     sodipodi:nodetypes="cccccccc" />
  <path
     style="fill:url(#linearGradient902);fill-opacity:1;stroke:none;stroke-width:0.1003325;opacity:1"
     inkscape:connector-curvature="0"
     id="path2"
     d="m 240.5143,153.08395 c -1.50426,1.80685 -4.21195,5.92245 -5.8165,9.33539 -1.70484,3.31255 -6.91964,14.05326 -11.53273,23.68978 -9.32646,19.17266 -14.44098,27.00234 -24.46943,37.34152 -5.61594,5.72169 -6.5185,7.02663 -5.91679,9.235 1.40398,5.62131 7.32077,2.10799 14.34069,-8.43196 1.60455,-2.50951 7.8222,-13.55135 13.83927,-24.5932 12.03415,-22.28446 19.25464,-34.02897 22.96517,-37.54229 l 2.40683,-2.30875 1.50427,2.81066 c 0.80227,1.60608 2.70768,6.72549 4.21195,11.44337 3.40968,10.94146 5.61594,13.04945 13.23756,13.04945 4.81366,0 6.21765,0.5019 10.52988,3.71408 8.72476,6.42435 20.95948,23.28826 24.67001,34.12935 1.00284,3.01141 0.90256,3.41293 -1.10313,4.41674 -1.20342,0.70266 -2.50712,1.70646 -2.90825,2.30875 -1.10313,1.60608 -1.00285,7.42815 0.10028,9.53614 0.90256,1.60608 0.40114,1.70647 -6.71907,1.30494 -7.72191,-0.40152 -7.72191,-0.40152 -12.03414,3.31256 l -4.31224,3.81445 -8.02277,-0.60228 c -9.62732,-0.60228 -11.53272,0.5019 -15.44382,9.13462 -4.91395,10.84109 -13.83927,16.9643 -18.55265,12.74832 -1.10313,-1.00381 -3.10882,-4.81826 -4.61309,-8.53234 -3.10882,-8.13082 -8.22333,-13.75212 -13.13728,-14.65554 -1.9054,-0.40153 -6.61878,-0.40153 -10.32931,-0.20076 -6.31793,0.5019 -7.1202,0.30114 -9.12589,-1.80685 -3.00854,-3.21218 -10.73045,-3.41294 -13.43814,-0.40152 -1.40398,1.5057 -1.60455,2.30875 -0.70199,3.21217 3.50996,3.51332 -30.28594,39.75065 -82.5342,88.63592 -24.970859,23.38865 -32.692771,29.81299 -46.732611,38.94761 -9.226181,5.92245 -11.933864,8.2312 -12.836426,10.74071 -0.701992,2.20837 -0.701992,3.81446 -0.100284,5.1194 2.607399,4.81826 9.42675,5.11941 22.965167,0.90343 12.635856,-3.81446 26.97655,-6.92625 36.002162,-7.7293 l 7.320772,-0.60228 -4.11167,8.33158 c -2.206256,4.6175 -4.011379,9.7369 -4.011379,11.24261 0,4.6175 2.607399,8.43195 6.819349,10.13842 3.71053,1.50571 4.51281,1.40533 14.3407,-0.90342 10.73045,-2.50951 44.52634,-6.42435 55.8585,-6.42435 h 6.41821 l -2.70768,4.71788 c -1.50427,2.71027 -3.00854,6.82587 -3.50996,9.235 -0.70199,4.1156 -0.60171,4.71788 2.00569,7.32777 3.50996,3.41294 5.11451,3.41294 16.54696,0.30114 4.91394,-1.40532 10.02845,-2.50951 11.23187,-2.50951 1.3037,0 4.31224,2.10799 7.52134,5.32016 5.41537,5.42055 14.84212,10.74071 19.05407,10.74071 1.70484,0 0.90256,0.90342 -3.50996,3.6137 -3.10882,1.90722 -5.71622,3.81445 -5.71622,4.11559 0,0.70267 9.42675,-0.60228 18.55265,-2.71027 4.41252,-1.0038 12.335,-2.30875 17.5498,-2.91103 26.77598,-3.31255 28.07968,-3.6137 30.88764,-9.53614 1.10313,-2.20837 1.10313,-3.71408 0.20057,-7.62891 -0.6017,-2.71028 -0.90256,-5.72169 -0.6017,-6.82587 1.3037,-3.81446 16.34638,-8.7331 42.72122,-13.8525 16.84781,-3.21218 35.8016,-4.1156 49.23973,-2.40914 9.1259,1.10419 10.12874,1.50571 12.03415,4.1156 3.40967,4.91864 12.73614,6.12321 17.04838,2.30875 2.20626,-2.00761 17.34923,-5.1194 30.98793,-6.42435 12.13443,-1.10418 17.5498,-3.01141 18.65293,-6.22358 0.30085,-1.10419 0.30085,-4.41674 -0.10029,-7.32777 -0.6017,-5.01903 -0.50142,-5.42055 2.30655,-7.32778 5.71622,-4.11559 37.90757,-11.04184 55.45737,-11.94527 15.84496,-0.80304 27.67854,0.90343 30.58679,4.41674 2.90826,3.71408 11.23187,4.51712 14.3407,1.40533 4.11166,-4.1156 2.00569,-14.05326 -3.00854,-14.15364 -3.71053,-0.10038 -16.94809,-13.3506 -26.37484,-26.50044 -6.41822,-9.03424 -24.0683,-38.24495 -34.19704,-56.81533 -3.81082,-6.92625 -9.32647,-16.56277 -12.23472,-21.38103 -6.71907,-11.04185 -10.32931,-18.26924 -10.32931,-20.27685 0,-0.90342 1.20341,-2.60989 2.70768,-3.91483 3.40968,-2.91104 2.80797,-5.52093 -2.90825,-12.24642 -2.40683,-2.81065 -9.22618,-11.44337 -15.14297,-19.17266 -13.43813,-17.56658 -14.74183,-18.77114 -18.75322,-18.16886 -2.6074,0.40152 -3.30939,0 -4.91394,-2.60989 -1.00285,-1.70647 -2.90825,-6.32397 -4.11167,-10.33919 -1.9054,-6.22358 -2.6074,-7.32777 -5.2148,-8.23119 -3.40967,-1.20457 -6.01707,-0.20076 -9.02561,3.31255 -1.00284,1.20457 -6.01707,10.64033 -11.23187,21.18027 -10.12874,20.37723 -13.43813,25.49664 -22.96517,35.33392 -6.01707,6.22359 -6.81935,8.63272 -3.2091,10.03804 3.61024,1.30495 9.12589,-6.32397 24.97086,-34.53087 5.31508,-9.43576 11.53272,-19.57418 13.73898,-22.48522 3.9111,-4.81826 4.31224,-5.1194 5.51565,-3.41293 0.702,1.0038 2.50712,5.42054 4.01139,9.7369 3.10882,9.33538 6.41821,12.3468 12.23471,11.34299 2.80797,-0.5019 4.21196,0 8.62448,3.41294 6.21764,4.6175 13.6387,14.05326 17.95094,22.88674 l 3.10882,6.22358 -2.70769,2.50951 c -2.90825,2.71028 -3.2091,4.1156 -1.80512,7.82968 0.80228,2.30875 0.80228,2.30875 -6.01707,2.30875 -6.11736,0 -7.12021,0.30114 -9.72761,2.81065 -2.80796,2.71027 -3.50996,2.91103 -9.92817,2.60989 -3.71053,-0.10038 -7.62163,0.20076 -8.62447,0.60228 -1.00285,0.40153 -3.10882,3.31256 -4.71338,6.42435 -3.71053,7.32777 -7.82219,11.24261 -12.23471,11.44337 -3.20911,0.20076 -3.50996,-0.10038 -7.32078,-7.72929 -5.41536,-10.64033 -7.52134,-12.14604 -17.44951,-12.14604 -5.61594,0 -8.42391,-0.5019 -10.4296,-1.80684 -3.50996,-2.20837 -8.92533,-2.20837 -11.0313,0.10038 -1.10313,1.20456 -1.3037,2.20837 -0.70199,2.81065 1.40398,1.40533 -9.52704,14.55516 -24.36916,29.31109 l -12.43528,12.34679 -9.52704,-16.86391 c -5.31508,-9.235 -10.52988,-18.77114 -11.73329,-21.07989 -2.6074,-5.32017 -2.70769,-9.03424 -0.30086,-9.83729 2.50712,-0.70266 4.41253,-5.1194 3.61025,-7.93005 -0.40114,-1.10419 -2.50712,-4.41674 -4.81366,-7.12701 -2.40683,-2.81065 -10.93102,-13.95288 -18.95378,-24.79397 -8.12306,-10.94147 -15.74468,-20.37723 -16.84781,-20.97951 -1.20342,-0.60228 -3.61025,-0.80304 -5.51565,-0.40152 -3.50996,0.60228 -3.50996,0.60228 -6.31793,-5.72169 -1.50427,-3.51331 -3.61025,-9.13462 -4.61309,-12.44717 -1.3037,-4.6175 -2.40683,-6.52473 -4.21195,-7.32777 -4.21196,-1.90723 -7.22049,-1.30495 -10.32932,2.0076 z" />
</svg>
