<?xml version="1.0" encoding="UTF-8" standalone="no"?>
<svg
   xmlns:dc="http://purl.org/dc/elements/1.1/"
   xmlns:cc="http://creativecommons.org/ns#"
   xmlns:rdf="http://www.w3.org/1999/02/22-rdf-syntax-ns#"
   xmlns:svg="http://www.w3.org/2000/svg"
   xmlns="http://www.w3.org/2000/svg"
   xmlns:xlink="http://www.w3.org/1999/xlink"
   xmlns:sodipodi="http://sodipodi.sourceforge.net/DTD/sodipodi-0.dtd"
   xmlns:inkscape="http://www.inkscape.org/namespaces/inkscape"
   version="1.0"
   width="800"
   height="800"
   viewBox="0 0 600 600"
   preserveAspectRatio="xMidYMid meet"
   id="svg12"
   sodipodi:docname="icon.svg"
   inkscape:version="0.92.2 (5c3e80d, 2017-08-06)">
  <metadata
     id="metadata18">
    <rdf:RDF>
      <cc:Work
         rdf:about="">
        <dc:format>image/svg+xml</dc:format>
        <dc:type
           rdf:resource="http://purl.org/dc/dcmitype/StillImage" />
        <dc:title />
      </cc:Work>
    </rdf:RDF>
  </metadata>
  <defs
     id="defs16">
    <linearGradient
       inkscape:collect="always"
       id="linearGradient930">
      <stop
         style="stop-color:#bcbcbc;stop-opacity:1;"
         offset="0"
         id="stop926" />
      <stop
         style="stop-color:#ffffff;stop-opacity:1"
         offset="1"
         id="stop928" />
    </linearGradient>
    <linearGradient
       inkscape:collect="always"
       id="linearGradient896">
      <stop
         style="stop-color:#38b2ff;stop-opacity:1"
         offset="0"
         id="stop892" />
      <stop
         style="stop-color:#000f81;stop-opacity:1"
         offset="1"
         id="stop894" />
    </linearGradient>
    <linearGradient
       inkscape:collect="always"
       xlink:href="#linearGradient930"
       id="linearGradient858"
       x1="509.24933"
       y1="192.78038"
       x2="381.46521"
       y2="227.02003"
       gradientUnits="userSpaceOnUse"
       gradientTransform="translate(16.718881,-30.651281)" />
    <linearGradient
       inkscape:collect="always"
       xlink:href="#linearGradient930"
       id="linearGradient866"
       x1="349.6601"
       y1="188.11687"
       x2="197.59624"
       y2="228.86226"
       gradientUnits="userSpaceOnUse"
       gradientTransform="translate(-7.1424788,-35.712394)" />
    <linearGradient
       inkscape:collect="always"
       xlink:href="#linearGradient896"
       id="linearGradient902"
       gradientUnits="userSpaceOnUse"
       x1="354.62067"
       y1="195.17319"
       x2="286.78793"
       y2="448.32834"
       gradientTransform="matrix(1.1428571,0,0,1.2499999,-42.857142,-74.999987)" />
  </defs>
  <sodipodi:namedview
     pagecolor="#ffffff"
     bordercolor="#666666"
     borderopacity="1"
     objecttolerance="10"
     gridtolerance="10"
     guidetolerance="10"
     inkscape:pageopacity="0"
     inkscape:pageshadow="2"
     inkscape:window-width="1440"
     inkscape:window-height="836"
     id="namedview14"
     showgrid="false"
     units="px"
     inkscape:zoom="0.38064516"
     inkscape:cx="149.19655"
     inkscape:cy="412.28708"
     inkscape:window-x="0"
     inkscape:window-y="27"
     inkscape:window-maximized="1"
     inkscape:current-layer="svg12"
     showguides="true" />
  <path
     style="opacity:1;fill:url(#linearGradient866);fill-opacity:1;stroke:none;stroke-width:0.42519683;stroke-linejoin:round;stroke-miterlimit:4;stroke-dasharray:none;stroke-opacity:1"
     d="m 256.14407,147.5609 26.29171,22.84363 27.03059,47.96544 -77.70525,73.27198 -63.54343,-57.75557 12.43776,-16.99417 27.70789,-43.71689 28.07734,-56.40096"
     id="rect834"
     inkscape:connector-curvature="0"
     sodipodi:nodetypes="cccccccc" />
  <path
     style="opacity:1;fill:url(#linearGradient858);fill-opacity:1;stroke:none;stroke-width:0.42519683;stroke-linejoin:round;stroke-miterlimit:4;stroke-dasharray:none;stroke-opacity:1"
     d="m 455.28091,157.41501 19.64182,16.68632 23.89881,38.90813 -71.05049,76.75383 -46.34647,-62.20596 9.78682,-13.21013 17.76655,-26.76136 28.32362,-52.33714"
     id="rect834-3"
     inkscape:connector-curvature="0"
     sodipodi:nodetypes="cccccccc" />
  <path
     style="opacity:1;fill:url(#linearGradient902);fill-opacity:1;stroke:none;stroke-width:0.11992025"
     inkscape:connector-curvature="0"
     id="path2"
     d="m 232.01634,116.35494 c -1.71915,2.25857 -4.81365,7.40308 -6.64743,11.66925 -1.94838,4.14068 -7.90816,17.56656 -13.18026,29.61221 -10.65881,23.96582 -16.50398,33.75293 -27.96506,46.67691 -6.41822,7.1521 -7.44972,8.78328 -6.76205,11.54374 1.60455,7.02664 8.3666,2.63498 16.38936,-10.53994 1.83377,-3.1369 8.93966,-16.93919 15.81631,-30.74151 13.75332,-27.85557 22.0053,-42.5362 26.24591,-46.92785 l 2.75066,-2.88594 1.71917,3.51333 c 0.91688,2.0076 3.09449,8.40685 4.81366,14.3042 3.89677,13.67683 6.41821,16.31181 15.12864,16.31181 5.50132,0 7.10588,0.62738 12.03414,4.64261 9.97116,8.03043 23.9537,29.11032 28.1943,42.66168 1.1461,3.76426 1.0315,4.26616 -1.26072,5.52092 -1.37534,0.87833 -2.86528,2.13308 -3.32371,2.88594 -1.26072,2.0076 -1.14612,9.2852 0.1146,11.92019 1.0315,2.0076 0.45845,2.13308 -7.67893,1.63117 -8.82504,-0.5019 -8.82504,-0.5019 -13.75331,4.1407 l -4.92827,4.76806 -9.16888,-0.75285 c -11.00265,-0.75285 -13.18025,0.62737 -17.65008,11.41827 -5.61594,13.55136 -15.81631,21.20538 -21.20303,15.93541 -1.26072,-1.25477 -3.55294,-6.02284 -5.2721,-10.66544 -3.55294,-10.16352 -9.39809,-17.19014 -15.01404,-18.31942 -2.1776,-0.50191 -7.56432,-0.50191 -11.80492,-0.25095 -7.22049,0.62738 -8.13737,0.37643 -10.42959,-2.25856 -3.43833,-4.01522 -12.26337,-4.26617 -15.35788,-0.5019 -1.60454,1.88213 -1.83377,2.88594 -0.80227,4.01521 4.01138,4.39165 -34.6125,49.68831 -94.3248,110.7949 -28.538125,29.23581 -37.363167,37.26623 -53.408698,48.68451 -10.5442065,7.40306 -13.6387015,10.28901 -14.67020054,13.42589 -0.802277,2.76046 -0.802277,4.76807 -0.114611,6.39925 2.97988504,6.02282 10.77342854,6.39925 26.24590454,1.12928 14.440979,-4.76807 30.830343,-8.6578 41.145325,-9.66161 l 8.3666,-0.75285 -4.69905,10.41446 c -2.52144,5.77187 -4.58443,12.17113 -4.58443,14.05327 0,5.77188 2.97988,10.53994 7.79354,12.67302 4.2406,1.88215 5.15749,1.75667 16.38937,-1.12927 12.26337,-3.13689 50.88724,-8.03044 63.83828,-8.03044 h 7.3351 l -3.09449,5.89735 c -1.71917,3.38784 -3.43833,8.53234 -4.01138,11.54375 -0.80228,5.1445 -0.68767,5.89735 2.29221,9.15971 4.01139,4.26618 5.84516,4.26618 18.91082,0.37642 5.61593,-1.75665 11.46108,-3.13688 12.83642,-3.13688 1.48994,0 4.92827,2.63498 8.59582,6.65019 6.18899,6.7757 16.96242,13.4259 21.77608,13.4259 1.94838,0 1.03149,1.12927 -4.01139,4.51712 -3.55293,2.38402 -6.53282,4.76807 -6.53282,5.14449 0,0.87834 10.77343,-0.75285 21.20303,-3.38784 5.04288,-1.25475 14.09714,-2.88594 20.05691,-3.63879 30.60112,-4.14068 32.09107,-4.51712 35.30016,-11.92017 1.26072,-2.76046 1.26072,-4.64261 0.22923,-9.53614 -0.68766,-3.38785 -1.0315,-7.15211 -0.68766,-8.53233 1.48994,-4.76807 18.68158,-10.91638 48.82425,-17.31563 19.25464,-4.01522 40.91611,-5.1445 56.27398,-3.01143 10.4296,1.38024 11.5757,1.88214 13.75331,5.14451 3.89677,6.1483 14.55559,7.65401 19.48386,2.88594 2.52144,-2.50951 19.8277,-6.39926 35.41478,-8.03045 13.86792,-1.38022 20.05692,-3.76425 21.31764,-7.77948 0.34382,-1.38023 0.34382,-5.52092 -0.11462,-9.1597 -0.68766,-6.27378 -0.57305,-6.77568 2.63606,-9.15973 6.53282,-5.14449 43.32293,-13.8023 63.37985,-14.93158 18.10852,-1.0038 31.63261,1.12928 34.95633,5.52092 3.32372,4.64259 12.83642,5.6464 16.38937,1.75666 4.69904,-5.1445 2.29222,-17.56657 -3.43833,-17.69205 -4.24061,-0.12547 -19.36925,-16.68826 -30.14268,-33.12554 -7.3351,-11.2928 -27.50662,-47.80619 -39.08233,-71.01917 -4.35522,-8.6578 -10.65882,-20.70346 -13.98253,-26.72628 -7.67894,-13.80231 -11.80493,-22.83654 -11.80493,-25.34608 0,-1.12927 1.37533,-3.26236 3.09449,-4.89353 3.89678,-3.6388 3.20911,-6.90116 -3.32371,-15.30802 -2.75067,-3.51331 -10.54421,-14.30421 -17.30625,-23.96583 -15.35787,-21.95822 -16.84781,-23.46392 -21.43226,-22.71107 -2.97988,0.5019 -3.78216,0 -5.61593,-3.26237 -1.14611,-2.13308 -3.32371,-7.90495 -4.69905,-12.92398 -2.1776,-7.77947 -2.97988,-9.1597 -5.95977,-10.28898 -3.89677,-1.50571 -6.87665,-0.25095 -10.31498,4.14069 -1.14611,1.50571 -6.87665,13.3004 -12.83643,26.47533 -11.5757,25.47154 -15.35786,31.8708 -26.2459,44.1674 -6.87666,7.77948 -7.79355,10.79089 -3.66755,12.54754 4.12599,1.63119 10.42959,-7.90495 28.53813,-43.16358 6.07438,-11.7947 13.18025,-24.46773 15.70169,-28.10652 4.46983,-6.02283 4.92827,-6.39926 6.3036,-4.26617 0.80229,1.25475 2.86528,6.77568 4.58445,12.17113 3.55293,11.66923 7.33509,15.4335 13.98252,14.17874 3.20911,-0.62737 4.81367,0 9.85655,4.26617 7.10587,5.77187 15.58709,17.56658 20.51536,28.60842 l 3.55294,7.77948 -3.09451,3.13689 c -3.32371,3.38784 -3.66754,5.14449 -2.06299,9.78709 0.91689,2.88596 0.91689,2.88596 -6.87665,2.88596 -6.99127,0 -8.13738,0.37642 -11.11727,3.51331 -3.2091,3.38783 -4.01138,3.63878 -11.34648,3.26236 -4.24061,-0.12548 -8.71043,0.25095 -9.85654,0.75285 -1.14611,0.50191 -3.55293,4.14069 -5.38672,8.03043 -4.2406,9.15971 -8.93964,14.05326 -13.98252,14.30421 -3.66756,0.25095 -4.01139,-0.12548 -8.36661,-9.66161 -6.18898,-13.30041 -8.59582,-15.18254 -19.9423,-15.18254 -6.41821,0 -9.62732,-0.62738 -11.91954,-2.25855 -4.01138,-2.76046 -10.20038,-2.76046 -12.6072,0.12547 -1.26072,1.5057 -1.48994,2.76046 -0.80227,3.51331 1.60455,1.75666 -10.88805,18.19395 -27.85047,36.63886 l -14.21175,15.43348 -10.88805,-21.07988 c -6.07437,-11.54375 -12.03414,-23.46393 -13.40947,-26.34986 -2.97989,-6.65021 -3.0945,-11.29279 -0.34384,-12.29663 2.86528,-0.87832 5.04289,-6.39924 4.126,-9.91255 -0.45845,-1.38024 -2.86528,-5.52092 -5.50133,-8.90876 -2.75066,-3.51332 -12.49259,-17.4411 -21.66146,-30.99246 -9.2835,-13.67684 -17.99392,-25.47154 -19.25464,-26.22439 -1.37534,-0.75285 -4.126,-1.0038 -6.3036,-0.5019 -4.01138,0.75285 -4.01138,0.75285 -7.22049,-7.15212 -1.71917,-4.39163 -4.126,-11.41826 -5.2721,-15.55894 -1.48995,-5.7719 -2.75067,-8.15593 -4.81366,-9.15973 -4.81367,-2.38404 -8.25199,-1.63119 -11.80494,2.5095 z" />
</svg>
